<svg xmlns="http://www.w3.org/2000/svg" xmlns:xlink="http://www.w3.org/1999/xlink" version="1.1" id="Layer_1" x="0px" y="0px" style="enable-background:new 0 0 3000 2000;" xml:space="preserve" viewBox="674.94 791.61 1650.11 416.81">
<style type="text/css">
	.st0{display:none;fill:#1B2228;}
	.st1{fill:url(#SVGID_1_);}
	.st2{fill:#4FAD6F;}
	.st3{fill:#1C3F60;}
</style>
<rect class="st0" width="3000" height="2000"/>
<g>
	<linearGradient id="SVGID_1_" gradientUnits="userSpaceOnUse" x1="1010.9711" y1="1156.1071" x2="761.675" y2="850.879">
		<stop offset="0" style="stop-color:#1C3F60"/>
		<stop offset="1" style="stop-color:#4CAF6E"/>
	</linearGradient>
	<path class="st1" d="M1073,1058.15c-0.57,0-1.13,0.04-1.69,0.09l-8.8-36.69c10.35-3.72,17.77-13.59,17.77-25.22   c0-11.39-7.12-21.1-17.14-24.99l7.68-28.81c0.72,0.08,1.44,0.13,2.18,0.13c10.84,0,19.64-8.79,19.64-19.64   c0-10.84-8.79-19.64-19.64-19.64c-5.73,0-10.88,2.47-14.46,6.39l-29.02-19.51c1.95-3.72,3.07-7.95,3.07-12.45   c0-14.81-12.01-26.82-26.82-26.82c-4.47,0-8.68,1.11-12.39,3.05l-18.93-28.29c3.94-3.59,6.42-8.75,6.42-14.49   c0-10.84-8.79-19.64-19.64-19.64c-10.84,0-19.64,8.79-19.64,19.64c0,0.33,0.03,0.65,0.05,0.97l-31.82,6.43   c-3.45-10.83-13.58-18.68-25.56-18.68c-14.81,0-26.82,12.01-26.82,26.82c0,8.68,4.14,16.38,10.54,21.28l-22.82,37.74   c-1.61-0.58-3.34-0.92-5.15-0.92c-5.87,0-10.95,3.36-13.44,8.26l-38.95-10.95c0.24-1.43,0.39-2.9,0.39-4.4   c0-8.33-3.8-15.77-9.76-20.69l18.39-28.04c2.5,1.15,5.27,1.81,8.2,1.81c10.84,0,19.64-8.79,19.64-19.64   c0-10.84-8.79-19.64-19.64-19.64c-10.84,0-19.64,8.79-19.64,19.64c0,5.81,2.54,11.02,6.56,14.62l-18.4,28.06   c-3.66-1.87-7.78-2.94-12.17-2.94c-14.81,0-26.82,12.01-26.82,26.82c0,4.53,1.13,8.79,3.11,12.53L709,909.62   c-3.59-3.89-8.71-6.34-14.42-6.34c-10.84,0-19.64,8.79-19.64,19.64c0,10.84,8.79,19.64,19.64,19.64c0.33,0,0.64-0.03,0.97-0.05   l6.51,32.28c-10.84,3.45-18.69,13.58-18.69,25.56c0,12.03,7.92,22.2,18.82,25.61l-6.33,32.25c-0.42-0.03-0.84-0.06-1.27-0.06   c-10.84,0-19.64,8.79-19.64,19.64c0,10.84,8.79,19.64,19.64,19.64c4.28,0,8.22-1.38,11.44-3.7l30.4,18.94   c-1.63,3.47-2.57,7.32-2.57,11.41c0,14.81,12.01,26.82,26.82,26.82c4.37,0,8.49-1.07,12.14-2.92l19.09,26.71   c-3.68,3.57-5.98,8.56-5.98,14.09c0,10.84,8.79,19.64,19.64,19.64c10.82,0,19.6-8.75,19.63-19.57l33.94-4.99   c3.78,10.23,13.59,17.54,25.14,17.54c14.81,0,26.82-12.01,26.82-26.82c0-9.05-4.5-17.04-11.36-21.9l20.79-37.56   c1.45,0.47,3,0.72,4.61,0.72c5.83,0,10.88-3.32,13.39-8.16l40.85,11.81c-0.26,1.49-0.42,3.02-0.42,4.59   c0,8.29,3.77,15.71,9.68,20.63l-17.37,26.27c-2.51-1.17-5.31-1.84-8.26-1.84c-10.84,0-19.64,8.79-19.64,19.64   c0,10.84,8.79,19.64,19.64,19.64c10.84,0,19.64-8.79,19.64-19.64c0-5.79-2.52-10.97-6.5-14.57l17.38-26.29   c3.68,1.9,7.84,2.98,12.26,2.98c14.81,0,26.82-12.01,26.82-26.82c0-4.04-0.92-7.85-2.52-11.29l31.5-19.05   c3.22,2.31,7.16,3.69,11.42,3.69c10.84,0,19.64-8.79,19.64-19.64C1092.64,1066.94,1083.85,1058.15,1073,1058.15z M1055.28,914.61   c-1.21,2.55-1.91,5.39-1.91,8.4c0,8.06,4.86,14.98,11.81,18.01l-7.68,28.82c-1.32-0.2-2.66-0.34-4.04-0.34   c-9.09,0-17.12,4.54-21.97,11.46l-34.36-18.82c0.45-1.43,0.7-2.96,0.7-4.54c0-5.84-3.32-10.89-8.17-13.39l11.54-39.99   c1.49,0.26,3.01,0.42,4.58,0.42c8.22,0,15.57-3.71,20.49-9.53L1055.28,914.61z M710.31,1089.5c2.44-3.27,3.91-7.32,3.91-11.72   c0-8.38-5.26-15.51-12.65-18.33l6.35-32.39c0.75,0.06,1.5,0.11,2.26,0.11c8.8,0,16.59-4.26,21.48-10.8l36.39,21.4   c-0.55,1.56-0.86,3.23-0.86,4.97c0,5.95,3.46,11.08,8.46,13.53l-10.97,41.3c-1.31-0.2-2.64-0.33-4.01-0.33   c-8.63,0-16.29,4.1-21.2,10.43L710.31,1089.5z M1005.77,1097.24c-1.52,0-2.99,0.16-4.44,0.4l-11.74-41.47   c4.89-2.49,8.24-7.56,8.24-13.43c0-8.33-6.75-15.08-15.08-15.08c-8.33,0-15.08,6.75-15.08,15.08s6.75,15.08,15.08,15.08   c0.41,0,0.81-0.03,1.21-0.06l11.73,41.45c-6.66,2.7-11.99,8-14.73,14.64l-40.84-11.81c0.04-0.43,0.07-0.86,0.07-1.3   c0-8.33-6.75-15.08-15.08-15.08c-8.33,0-15.08,6.75-15.08,15.08c0,4.62,2.09,8.75,5.36,11.52l-20.78,37.54   c-3.19-1.34-6.68-2.08-10.36-2.08c-4.3,0-8.35,1.04-11.95,2.84l-22.15-38.47c3.16-2.76,5.17-6.82,5.17-11.35   c0-8.33-6.75-15.08-15.08-15.08c-8.33,0-15.08,6.75-15.08,15.08c0,8.33,6.75,15.08,15.08,15.08c1.7,0,3.32-0.29,4.84-0.81   l22.28,38.71c-6.06,4.92-9.94,12.42-9.94,20.84c0,1.22,0.11,2.41,0.27,3.58l-33.38,4.91c-2.45-8.06-9.93-13.92-18.78-13.92   c-3.21,0-6.23,0.79-8.9,2.15l-18.93-26.49c5.97-4.92,9.78-12.37,9.78-20.71c0-11.4-7.13-21.12-17.16-25l10.96-41.29   c0.32,0.02,0.64,0.05,0.97,0.05c8.33,0,15.08-6.75,15.08-15.08s-6.75-15.08-15.08-15.08c-4.48,0-8.49,1.97-11.25,5.07l-36.38-21.4   c1.51-3.36,2.37-7.07,2.37-10.99c0-14.81-12.01-26.82-26.82-26.82c-0.81,0-1.61,0.05-2.4,0.12l-6.51-32.29   c7.54-2.74,12.94-9.95,12.94-18.44c0-3.03-0.71-5.89-1.94-8.46l28.49-19.3c4.92,5.78,12.24,9.46,20.43,9.46   c1.95,0,3.85-0.22,5.68-0.61l9.22,39.96c-5.25,2.36-8.91,7.62-8.91,13.75c0,8.33,6.75,15.08,15.08,15.08s15.08-6.75,15.08-15.08   c0-8.33-6.75-15.08-15.08-15.08c-0.16,0-0.32,0.02-0.47,0.02l-9.35-40.53c6.17-2.86,11.07-7.97,13.63-14.3L825,898.78   c-0.03,0.39-0.06,0.79-0.06,1.19c0,8.33,6.75,15.08,15.08,15.08c8.33,0,15.08-6.75,15.08-15.08c0-4.41-1.91-8.37-4.93-11.13   l22.82-37.74c3.43,1.6,7.25,2.51,11.29,2.51c3.71,0,7.24-0.75,10.45-2.11l20.64,36.98c-3.25,2.77-5.32,6.88-5.32,11.48   c0,8.33,6.75,15.08,15.08,15.08c8.33,0,15.08-6.75,15.08-15.08c0-8.33-6.75-15.08-15.08-15.08c-1.63,0-3.19,0.26-4.66,0.74   l-20.66-37.01c6.82-4.86,11.29-12.82,11.29-21.84c0-0.81-0.05-1.62-0.12-2.41l31.83-6.43c2.74,7.54,9.95,12.93,18.44,12.93   c2.99,0,5.82-0.69,8.36-1.89l18.92,28.29c-5.85,4.92-9.57,12.29-9.57,20.53c0,11.2,6.87,20.79,16.63,24.81l-11.53,39.97   c-0.43-0.04-0.85-0.07-1.29-0.07c-8.33,0-15.08,6.75-15.08,15.08s6.75,15.08,15.08,15.08c4.65,0,8.8-2.11,11.57-5.41l34.35,18.81   c-1.31,3.16-2.04,6.61-2.04,10.24c0,14.81,12.01,26.82,26.82,26.82c1.15,0,2.27-0.1,3.38-0.24l8.8,36.68   c-7.19,2.92-12.27,9.96-12.27,18.19c0,4.4,1.46,8.45,3.91,11.72l-30.23,18.28C1022.15,1101.39,1014.45,1097.24,1005.77,1097.24z"/>
	<path class="st2" d="M1388.41,977.6c-2.81-2.88-6.91-4.32-12.33-4.32h-42.54c-5.42,0-9.57,1.3-12.45,3.91   c-2.9,2.59-4.34,6.32-4.34,11.18c0,4.66,1.44,8.33,4.34,11.03c2.88,2.69,7.03,4.05,12.45,4.05h24.39v21.14l34.66,21.01v-55.62   C1392.6,984.6,1391.21,980.46,1388.41,977.6z"/>
	<g>
		<path class="st3" d="M1365.78,1038.2c-0.37,0.14-0.76,0.27-1.13,0.39l-6.71-4.08v6.18c-4.12,1.17-8.28,2.13-12.47,2.9    c-6.86,1.25-13.55,1.88-20.04,1.88c-19.33,0-33.92-5.2-43.76-15.62c-9.84-10.42-14.77-25.77-14.77-46.06    c0-13.47,2.12-24.82,6.37-34.07c4.24-9.25,10.71-16.25,19.36-21.01c8.67-4.76,19.41-7.15,32.25-7.15c7.95,0,15.25,0.78,21.94,2.3    c6.67,1.52,12.99,3.9,18.96,7.13c4.52,2.15,8.54,2.83,12.06,2.02s6.4-2.59,8.67-5.39c2.25-2.78,3.69-6.01,4.34-9.69    c0.63-3.68,0.27-7.18-1.08-10.5c-1.36-3.32-3.93-6.06-7.72-8.22c-9.03-5.03-18.43-8.62-28.17-10.77    c-9.76-2.17-19.52-3.24-29.26-3.24c-15.91,0-30.12,2.34-42.67,7c-12.55,4.68-23.21,11.28-31.97,19.8    c-8.76,8.54-15.45,18.85-20.06,30.97c-4.59,12.13-6.89,25.73-6.89,40.81c0,19.58,3.88,36.64,11.64,51.18    c7.78,14.55,19.11,25.87,34,33.95c14.91,8.08,33.1,12.11,54.6,12.11c9.93,0,19.94-0.9,30.07-2.69c10.11-1.8,19.23-4.13,27.36-7    c4.34-1.44,7.4-3.78,9.22-7.01c1.41-2.51,2.25-5.47,2.56-8.88l-27.07-16.42L1365.78,1038.2z"/>
		<path class="st3" d="M1547.44,948.77c-3.52-3.41-8.64-5.12-15.31-5.12c-6.51,0-11.52,1.71-15.03,5.12    c-3.52,3.42-5.29,8.54-5.29,15.37v55.48c0,8.98-2.49,16.21-7.45,21.68c-4.96,5.47-11.33,8.22-19.11,8.22    c-7.03,0-12.18-1.93-15.43-5.79c-3.25-3.86-4.88-9.74-4.88-17.63v-61.95c0-6.83-1.81-11.94-5.42-15.37    c-3.61-3.41-8.66-5.12-15.16-5.12c-6.51,0-11.52,1.71-15.04,5.12c-3.52,3.42-5.29,8.54-5.29,15.37V1025    c0,12.38,1.76,22.75,5.29,31.1c3.52,8.35,8.98,14.6,16.4,18.72c7.4,4.13,16.7,6.2,27.9,6.2c10.11,0,18.87-2.51,26.27-7.54    c5.17-3.52,9.5-8.05,13.01-13.57c0.03,6.56,1.74,11.62,5.13,15.18c3.44,3.59,8.4,5.39,14.91,5.39c13.18,0,19.77-6.91,19.77-20.74    v-95.61C1552.7,957.31,1550.94,952.19,1547.44,948.77z"/>
		<path class="st3" d="M1618.4,949.45c-3.51-3.86-8.52-5.79-15.03-5.79c-6.69,0-11.79,1.93-15.31,5.79    c-3.52,3.86-5.29,9.38-5.29,16.57v92.12c0,7,1.76,12.43,5.29,16.3c3.52,3.85,8.62,5.78,15.31,5.78c6.67,0,11.74-1.93,15.16-5.78    c3.44-3.86,5.15-9.3,5.15-16.3v-92.12C1623.68,958.83,1621.92,953.31,1618.4,949.45z M1620.7,886.16    c-3.96-3.51-9.74-5.27-17.33-5.27c-7.59,0-13.42,1.76-17.48,5.27c-4.07,3.49-6.08,8.57-6.08,15.21c0,6.45,2.02,11.45,6.08,14.94    c4.07,3.51,9.89,5.25,17.48,5.25c7.59,0,13.37-1.74,17.33-5.25c3.98-3.49,5.96-8.49,5.96-14.94    C1626.67,894.73,1624.68,889.65,1620.7,886.16z"/>
		<path class="st3" d="M1782.16,891c-3.61-3.51-8.66-5.25-15.16-5.25c-6.69,0-11.74,1.74-15.18,5.25    c-3.42,3.49-5.15,8.66-5.15,15.48v57.5c-3.12-5.25-7.59-9.69-13.4-13.32c-8.05-5.03-17.3-7.56-27.77-7.56    c-11.57,0-21.72,2.8-30.48,8.35c-8.78,5.57-15.59,13.47-20.46,23.7c-4.88,10.25-7.32,22.46-7.32,36.64    c0,14.18,2.44,26.48,7.32,36.9c4.88,10.42,11.69,18.41,20.46,23.97c8.76,5.57,18.91,8.35,30.48,8.35    c10.66,0,20.09-2.64,28.31-7.95c5.79-3.73,10.16-8.33,13.13-13.82v0.49c0,6.64,1.76,11.76,5.29,15.35s8.54,5.39,15.04,5.39    c6.51,0,11.5-1.8,15.03-5.39s5.29-8.71,5.29-15.35V906.48C1787.58,899.66,1785.77,894.49,1782.16,891z M1743.42,1033.49    c-2.52,5.66-5.95,9.93-10.28,12.79c-4.34,2.88-9.49,4.3-15.45,4.3c-8.67,0-15.7-3.18-21.12-9.55c-5.42-6.37-8.13-16.11-8.13-29.22    c0-8.79,1.22-16.03,3.66-21.68c2.44-5.66,5.86-9.83,10.3-12.52c4.42-2.71,9.52-4.05,15.3-4.05c8.84,0,15.99,3.1,21.41,9.3    c5.4,6.18,8.11,15.84,8.11,28.95C1747.21,1020.6,1745.96,1027.83,1743.42,1033.49z"/>
		<path class="st3" d="M1939.02,1018.12c2.17-1.69,3.25-4.25,3.25-7.67c0-10.23-1.44-19.52-4.34-27.87    c-2.88-8.35-7.13-15.45-12.72-21.28c-5.61-5.84-12.28-10.33-20.06-13.47c-7.76-3.15-16.43-4.73-26-4.73    c-13.18,0-24.97,2.93-35.36,8.76c-10.38,5.84-18.46,13.93-24.24,24.24c-5.78,10.33-8.67,22.31-8.67,35.96    c0,14.01,3.03,26.17,9.08,36.49c6.05,10.33,14.72,18.31,26,23.97c11.28,5.66,24.78,8.49,40.5,8.49c7.22,0,14.67-0.85,22.34-2.56    c7.67-1.71,14.59-4.27,20.74-7.67c3.78-1.98,6.49-4.44,8.11-7.4c1.63-2.96,2.3-5.98,2.03-9.03c-0.27-3.05-1.3-5.74-3.12-8.08    c-1.8-2.34-4.34-3.81-7.57-4.44c-3.25-0.63-6.96,0.03-11.11,2.02c-4.88,2.34-10.11,4.03-15.72,5.12    c-5.59,1.08-10.55,1.61-14.89,1.61c-12.65,0-22.18-3.22-28.58-9.69c-4.74-4.78-7.72-11.5-8.96-20.19h79.81    C1933.7,1020.7,1936.85,1019.83,1939.02,1018.12z M1849.65,999.67c0.59-4.39,1.66-8.33,3.22-11.84    c2.52-5.74,6.13-10.15,10.84-13.2c4.69-3.05,10.38-4.59,17.06-4.59c5.96,0,10.98,1.27,15.04,3.78c4.07,2.52,7.17,6.23,9.33,11.18    c1.78,4.07,2.83,8.94,3.13,14.67H1849.65z"/>
		<path class="st3" d="M2161.56,890.87c-3.34-3.42-8.08-5.12-14.21-5.12c-5.23,0-9.44,1.03-12.6,3.1c-3.15,2.05-6.1,5.61-8.79,10.64    l-57.99,105.29L2010,899.49c-2.71-5.03-5.64-8.59-8.81-10.64c-3.15-2.07-7.44-3.1-12.86-3.1c-6.15,0-10.98,1.69-14.5,5.12    c-3.52,3.41-5.29,8.17-5.29,14.26v155.97c0,6.1,1.63,10.86,4.88,14.26c3.25,3.4,7.95,5.12,14.09,5.12    c6.32,0,11.06-1.71,14.21-5.12c3.17-3.41,4.74-8.17,4.74-14.26v-97.88l44.43,78.49c1.98,3.24,4.24,5.74,6.78,7.54    c2.52,1.8,5.78,2.69,9.74,2.69c3.98,0,7.18-0.85,9.62-2.56c2.44-1.71,4.74-4.27,6.91-7.67l44.42-79.08v98.48    c0,6.1,1.68,10.86,5.01,14.26c3.34,3.4,8.08,5.12,14.23,5.12c6.13,0,10.84-1.71,14.08-5.12c3.25-3.41,4.88-8.17,4.88-14.26V905.13    C2166.58,899.03,2164.92,894.27,2161.56,890.87z"/>
		<path class="st3" d="M2321.8,1018.12c2.17-1.69,3.25-4.25,3.25-7.67c0-10.23-1.44-19.52-4.34-27.87    c-2.88-8.35-7.13-15.45-12.72-21.28c-5.61-5.84-12.28-10.33-20.04-13.47c-7.78-3.15-16.45-4.73-26.02-4.73    c-13.18,0-24.97,2.93-35.35,8.76c-10.38,5.84-18.47,13.93-24.24,24.24c-5.78,10.33-8.67,22.31-8.67,35.96    c0,14.01,3.03,26.17,9.08,36.49c6.05,10.33,14.72,18.31,26,23.97c11.28,5.66,24.8,8.49,40.51,8.49c7.22,0,14.67-0.85,22.34-2.56    c7.67-1.71,14.59-4.27,20.74-7.67c3.79-1.98,6.51-4.44,8.11-7.4c1.63-2.96,2.3-5.98,2.03-9.03c-0.27-3.05-1.3-5.74-3.1-8.08    c-1.81-2.34-4.34-3.81-7.59-4.44c-3.25-0.63-6.96,0.03-11.11,2.02c-4.88,2.34-10.11,4.03-15.7,5.12    c-5.61,1.08-10.57,1.61-14.91,1.61c-12.64,0-22.18-3.22-28.58-9.69c-4.74-4.78-7.72-11.5-8.96-20.19h79.81    C2316.48,1020.7,2319.65,1019.83,2321.8,1018.12z M2232.46,999.67c0.58-4.39,1.66-8.33,3.2-11.84c2.52-5.74,6.13-10.15,10.84-13.2    c4.69-3.05,10.38-4.59,17.06-4.59c5.96,0,10.98,1.27,15.04,3.78c4.07,2.52,7.18,6.23,9.35,11.18c1.78,4.07,2.83,8.94,3.12,14.67    H2232.46z"/>
	</g>
	<g>
		<g>
			<path class="st2" d="M1365.78,1038.2l-0.39,0.83l-0.75-0.44C1365.02,1038.47,1365.41,1038.33,1365.78,1038.2z"/>
		</g>
	</g>
</g>
</svg>