<svg xmlns="http://www.w3.org/2000/svg" xmlns:xlink="http://www.w3.org/1999/xlink" version="1.1" id="Layer_1" x="0px" y="0px" style="enable-background:new 0 0 3000 2000;" xml:space="preserve" viewBox="886.83 388.16 1226.33 1223.64">
<style type="text/css">
	.st0{display:none;fill:#1B2228;}
	.st1{fill:url(#SVGID_1_);}
</style>
<rect class="st0" width="3000" height="2000"/>
<g>
	<linearGradient id="SVGID_1_" gradientUnits="userSpaceOnUse" x1="1873.3856" y1="1458.3162" x2="1141.4746" y2="562.1943">
		<stop offset="0" style="stop-color:#1C3F60"/>
		<stop offset="1" style="stop-color:#4CAF6E"/>
	</linearGradient>
	<path class="st1" d="M2055.51,1170.72c-1.67,0-3.32,0.11-4.95,0.25l-25.85-107.72c30.39-10.92,52.16-39.9,52.16-74.05   c0-33.45-20.89-61.96-50.31-73.37l22.56-84.59c2.1,0.23,4.23,0.37,6.39,0.37c31.84,0,57.65-25.81,57.65-57.65   s-25.81-57.65-57.65-57.65c-16.83,0-31.93,7.26-42.47,18.76l-85.2-57.28c5.74-10.93,9.03-23.34,9.03-36.54   c0-43.49-35.26-78.75-78.75-78.75c-13.13,0-25.49,3.26-36.38,8.95l-55.57-83.06c11.56-10.54,18.86-25.68,18.86-42.56   c0-31.84-25.81-57.65-57.65-57.65c-31.84,0-57.65,25.81-57.65,57.65c0,0.97,0.1,1.91,0.14,2.86l-93.43,18.87   c-10.12-31.8-39.88-54.85-75.03-54.85c-43.49,0-78.75,35.26-78.75,78.75c0,25.49,12.16,48.09,30.95,62.48l-67.01,110.81   c-4.72-1.72-9.79-2.7-15.11-2.7c-17.24,0-32.14,9.88-39.45,24.26l-114.35-32.16c0.7-4.21,1.15-8.5,1.15-12.91   c0-24.46-11.15-46.31-28.65-60.76l53.99-82.33c7.33,3.38,15.46,5.31,24.06,5.31c31.84,0,57.65-25.81,57.65-57.65   c0-31.84-25.81-57.65-57.65-57.65c-31.84,0-57.65,25.81-57.65,57.65c0,17.07,7.46,32.36,19.25,42.91l-54.04,82.39   c-10.73-5.48-22.85-8.63-35.73-8.63c-43.49,0-78.75,35.26-78.75,78.75c0,13.29,3.32,25.8,9.14,36.78l-83.64,56.64   c-10.53-11.42-25.58-18.62-42.34-18.62c-31.84,0-57.65,25.81-57.65,57.65s25.81,57.65,57.65,57.65c0.96,0,1.89-0.1,2.84-0.14   l19.1,94.78c-31.82,10.11-54.88,39.88-54.88,75.04c0,35.31,23.24,65.19,55.26,75.19l-18.58,94.69c-1.24-0.08-2.48-0.19-3.74-0.19   c-31.84,0-57.65,25.81-57.65,57.65c0,31.84,25.81,57.65,57.65,57.65c12.55,0,24.13-4.06,33.6-10.87l89.25,55.61   c-4.8,10.17-7.56,21.5-7.56,33.49c0,43.49,35.26,78.75,78.75,78.75c12.84,0,24.92-3.14,35.63-8.59l56.03,78.4   c-10.8,10.48-17.54,25.12-17.54,41.36c0,31.84,25.81,57.65,57.65,57.65c31.77,0,57.53-25.7,57.64-57.45l99.66-14.65   c11.1,30.05,39.91,51.51,73.81,51.51c43.49,0,78.75-35.26,78.75-78.75c0-26.58-13.2-50.03-33.37-64.29l61.02-110.26   c4.26,1.37,8.8,2.12,13.52,2.12c17.13,0,31.95-9.74,39.31-23.97l119.94,34.68c-0.76,4.39-1.24,8.88-1.24,13.48   c0,24.35,11.06,46.11,28.42,60.56l-51,77.13c-7.38-3.43-15.58-5.41-24.26-5.41c-31.84,0-57.65,25.81-57.65,57.65   c0,31.84,25.81,57.65,57.65,57.65c31.84,0,57.65-25.81,57.65-57.65c0-16.99-7.39-32.21-19.09-42.76l51.03-77.18   c10.8,5.56,23.01,8.76,36,8.76c43.49,0,78.75-35.26,78.75-78.75c0-11.85-2.69-23.05-7.38-33.13l92.48-55.93   c9.46,6.79,21.02,10.83,33.54,10.83c31.84,0,57.65-25.81,57.65-57.65C2113.16,1196.53,2087.35,1170.72,2055.51,1170.72z    M2003.46,749.3c-3.55,7.48-5.6,15.82-5.6,24.66c0,23.67,14.28,43.98,34.68,52.86l-22.56,84.61c-3.88-0.59-7.82-0.99-11.86-0.99   c-26.7,0-50.26,13.32-64.5,33.65l-100.87-55.25c1.33-4.21,2.05-8.69,2.05-13.34c0-17.13-9.75-31.96-23.99-39.32l33.87-117.42   c4.37,0.75,8.85,1.23,13.43,1.23c24.13,0,45.7-10.88,60.15-27.98L2003.46,749.3z M990.67,1262.77c7.17-9.61,11.47-21.49,11.47-34.4   c0-24.6-15.44-45.55-37.14-53.82l18.66-95.09c2.19,0.18,4.4,0.34,6.64,0.34c25.84,0,48.69-12.5,63.05-31.71l106.83,62.84   c-1.6,4.58-2.52,9.48-2.52,14.6c0,17.47,10.14,32.53,24.84,39.73l-32.19,121.24c-3.85-0.58-7.76-0.98-11.78-0.98   c-25.35,0-47.83,12.02-62.24,30.62L990.67,1262.77z M1858.12,1285.5c-4.45,0-8.79,0.46-13.04,1.17l-34.46-121.74   c14.35-7.32,24.19-22.2,24.19-39.42c0-24.45-19.82-44.27-44.27-44.27c-24.45,0-44.27,19.82-44.27,44.27   c0,24.45,19.82,44.27,44.27,44.27c1.2,0,2.38-0.09,3.56-0.18l34.45,121.7c-19.56,7.94-35.2,23.47-43.24,42.98l-119.89-34.66   c0.11-1.26,0.19-2.52,0.19-3.81c0-24.45-19.82-44.27-44.27-44.27c-24.45,0-44.27,19.82-44.27,44.27c0,13.57,6.12,25.7,15.74,33.82   l-61,110.22c-9.36-3.92-19.63-6.1-30.4-6.1c-12.63,0-24.51,3.05-35.09,8.33l-65.02-112.95c9.29-8.11,15.19-20.02,15.19-33.32   c0-24.45-19.82-44.27-44.27-44.27c-24.45,0-44.27,19.82-44.27,44.27c0,24.45,19.82,44.27,44.27,44.27c4.98,0,9.75-0.86,14.22-2.38   l65.42,113.64c-17.8,14.44-29.19,36.46-29.19,61.17c0,3.57,0.32,7.06,0.78,10.51l-97.99,14.4c-7.19-23.65-29.15-40.87-55.15-40.87   c-9.42,0-18.29,2.31-26.14,6.31l-55.59-77.79c17.53-14.44,28.72-36.32,28.72-60.81c0-33.48-20.93-62.01-50.38-73.4l32.19-121.22   c0.94,0.06,1.88,0.14,2.84,0.14c24.45,0,44.27-19.82,44.27-44.27c0-24.45-19.82-44.27-44.27-44.27c-13.15,0-24.93,5.77-33.04,14.88   l-106.81-62.82c4.44-9.86,6.97-20.76,6.97-32.27c0-43.49-35.26-78.75-78.75-78.75c-2.38,0-4.72,0.15-7.05,0.36l-19.1-94.8   c22.14-8.05,37.99-29.21,37.99-54.14c0-8.9-2.08-17.3-5.68-24.83l83.66-56.65c14.44,16.98,35.93,27.78,59.97,27.78   c5.72,0,11.29-0.65,16.67-1.81l27.07,117.32c-15.41,6.93-26.15,22.37-26.15,40.36c0,24.45,19.82,44.27,44.27,44.27   c24.45,0,44.27-19.82,44.27-44.27s-19.82-44.27-44.27-44.27c-0.47,0-0.93,0.06-1.39,0.07l-27.45-119c18.12-8.39,32.5-23.4,40-41.99   l114.31,32.14c-0.09,1.15-0.18,2.31-0.18,3.49c0,24.45,19.82,44.27,44.27,44.27c24.45,0,44.27-19.82,44.27-44.27   c0-12.96-5.6-24.58-14.48-32.68l67.01-110.81c10.08,4.69,21.28,7.38,33.13,7.38c10.88,0,21.25-2.21,30.67-6.2l60.61,108.58   c-9.55,8.12-15.62,20.2-15.62,33.71c0,24.45,19.82,44.27,44.27,44.27c24.45,0,44.27-19.82,44.27-44.27   c0-24.45-19.82-44.27-44.27-44.27c-4.77,0-9.36,0.78-13.67,2.18l-60.64-108.64c20.03-14.28,33.14-37.64,33.14-64.12   c0-2.39-0.15-4.75-0.36-7.08l93.44-18.87c8.05,22.13,29.21,37.97,54.13,37.97c8.79,0,17.09-2.02,24.54-5.54l55.56,83.05   c-17.17,14.45-28.11,36.07-28.11,60.27c0,32.89,20.18,61.04,48.82,72.83l-33.86,117.36c-1.25-0.11-2.51-0.19-3.79-0.19   c-24.45,0-44.27,19.82-44.27,44.27c0,24.45,19.82,44.27,44.27,44.27c13.64,0,25.84-6.18,33.96-15.89l100.85,55.23   c-3.84,9.27-5.98,19.42-5.98,30.08c0,43.49,35.26,78.75,78.75,78.75c3.36,0,6.66-0.28,9.91-0.69l25.84,107.7   c-21.11,8.56-36.01,29.23-36.01,53.41c0,12.92,4.3,24.8,11.48,34.41l-88.74,53.67C1906.2,1297.66,1883.61,1285.5,1858.12,1285.5z"/>
</g>
</svg>